<?xml version="1.0" encoding="UTF-8"?>
<!DOCTYPE svg PUBLIC "-//W3C//DTD SVG 1.1//EN" "http://www.w3.org/Graphics/SVG/1.1/DTD/svg11.dtd">
<!-- Creator: CorelDRAW X7 -->
<svg xmlns="http://www.w3.org/2000/svg" xml:space="preserve" width="5000px" height="912px" version="1.1" style="shape-rendering:geometricPrecision; text-rendering:geometricPrecision; image-rendering:optimizeQuality; fill-rule:evenodd; clip-rule:evenodd"
viewBox="0 0 5000 912"
 xmlns:xlink="http://www.w3.org/1999/xlink">
 <defs>
  <style type="text/css">
   <![CDATA[
    .str0 {stroke:#373435;stroke-width:2.36221}
    .fil1 {fill:#FEFEFE}
    .fil2 {fill:#97BE49;fill-rule:nonzero}
    .fil0 {fill:#030303;fill-rule:nonzero}
   ]]>
  </style>
 </defs>
 <g id="Layer_x0020_1">
  <metadata id="CorelCorpID_0Corel-Layer"/>
  <g id="_263249200">
   <g>
    <polygon class="fil0" points="338,276 319,276 319,227 338,227 "/>
    <polygon class="fil0" points="299,276 279,276 279,227 299,227 "/>
    <polygon class="fil0" points="338,316 319,316 319,296 338,296 "/>
    <polygon class="fil0" points="299,316 279,316 279,296 299,296 "/>
    <polygon class="fil0" points="407,355 388,355 388,336 407,336 "/>
    <polygon class="fil0" points="457,553 437,553 437,533 457,533 "/>
    <polygon class="fil0" points="299,355 279,355 279,336 299,336 "/>
    <polygon class="fil0" points="338,395 319,395 319,375 338,375 "/>
    <polygon class="fil0" points="299,395 279,395 279,375 299,375 "/>
    <path class="fil0" d="M693 20l-29 0 0 -20 39 0c6,0 10,5 10,10l0 40 -20 0 0 -30z"/>
    <path class="fil0" d="M92 0l39 0 0 20 -29 0 0 30 -20 0 0 -40c0,-5 4,-10 10,-10z"/>
    <path class="fil0" d="M102 612l29 0 0 20 -39 0c-6,0 -10,-5 -10,-10l0 -40 20 0 0 30z"/>
    <path class="fil0" d="M674 50l0 118c0,5 -5,10 -10,10l-119 0c-5,0 -9,-5 -9,-10l0 -118c0,-6 4,-10 9,-10l119 0c5,0 10,4 10,10zm-20 9l-99 0 0 99 99 0 0 -99z"/>
    <path class="fil0" d="M585 79l39 0c6,0 10,5 10,10l0 39c0,6 -4,10 -10,10l-39 0c-5,0 -10,-4 -10,-10l0 -39c0,-5 5,-10 10,-10zm10 40l20 0 0 -20 -20 0 0 20z"/>
    <path class="fil0" d="M250 178l-119 0c-5,0 -10,-5 -10,-10l0 -118c0,-6 5,-10 10,-10l119 0c5,0 9,4 9,10l0 118c0,5 -4,10 -9,10zm-10 -119l-99 0 0 99 99 0 0 -99z"/>
    <path class="fil0" d="M171 79l39 0c6,0 10,5 10,10l0 39c0,6 -4,10 -10,10l-39 0c-6,0 -10,-4 -10,-10l0 -39c0,-5 4,-10 10,-10zm10 40l19 0 0 -20 -19 0 0 20z"/>
    <path class="fil0" d="M279 188l69 0 0 -119 20 0 0 128c0,6 -4,10 -10,10l-79 0 0 -19z"/>
    <polygon class="fil0" points="496,138 427,138 427,119 496,119 "/>
    <polygon class="fil0" points="457,99 388,99 388,79 457,79 "/>
    <polygon class="fil0" points="674,276 654,276 654,188 674,188 "/>
    <path class="fil0" d="M536 247l98 0 0 20 -89 0 0 39 -19 0 0 -49c0,-6 4,-10 10,-10z"/>
    <polygon class="fil0" points="624,217 605,217 605,197 624,197 "/>
    <polygon class="fil0" points="506,257 486,257 486,178 506,178 "/>
    <polygon class="fil0" points="506,296 417,296 417,276 506,276 "/>
    <path class="fil0" d="M111 286l20 0 0 99 30 0 0 20 -40 0c-5,0 -10,-5 -10,-10l0 -109z"/>
    <polygon class="fil0" points="457,197 437,197 437,178 457,178 "/>
    <polygon class="fil0" points="674,405 654,405 654,326 674,326 "/>
    <polygon class="fil0" points="674,434 585,434 585,415 674,415 "/>
    <path class="fil0" d="M220 276l-20 0 0 -39c0,-6 5,-10 10,-10l49 0 0 20 -39 0 0 29z"/>
    <polygon class="fil0" points="624,345 605,345 605,326 624,326 "/>
    <polygon class="fil0" points="516,395 496,395 496,316 516,316 "/>
    <polygon class="fil0" points="516,434 427,434 427,415 516,415 "/>
    <polygon class="fil0" points="634,395 546,395 546,375 634,375 "/>
    <polygon class="fil0" points="506,553 486,553 486,513 506,513 "/>
    <polygon class="fil0" points="516,493 427,493 427,474 516,474 "/>
    <path class="fil0" d="M358 434l0 -49c0,-6 5,-10 10,-10l99 0 0 20 -89 0 0 39 -20 0z"/>
    <polygon class="fil0" points="457,336 437,336 437,316 457,316 "/>
    <polygon class="fil0" points="565,355 545,355 545,336 565,336 "/>
    <polygon class="fil0" points="131,592 111,592 111,523 131,523 "/>
    <polygon class="fil0" points="181,592 151,592 151,572 181,572 "/>
    <polygon class="fil0" points="181,553 161,553 161,513 181,513 "/>
    <path class="fil0" d="M111 434c0,-5 5,-10 10,-10l109 0 0 20 -99 0 0 59 -20 0 0 -69z"/>
    <path class="fil0" d="M240 553l0 -50c0,-5 4,-10 10,-10l108 0 0 20 -99 0 0 40 -19 0z"/>
    <polygon class="fil0" points="220,484 151,484 151,464 220,464 "/>
    <polygon class="fil0" points="516,592 447,592 447,572 516,572 "/>
    <polygon class="fil0" points="417,592 398,592 398,503 417,503 "/>
    <polygon class="fil0" points="398,474 358,474 358,454 398,454 "/>
    <path class="fil0" d="M250 355l-50 0 0 -19 40 0 0 -60 19 0 0 69c0,6 -4,10 -9,10z"/>
    <polygon class="fil0" points="220,316 171,316 171,296 220,296 "/>
    <polygon class="fil0" points="181,217 151,217 151,197 181,197 "/>
    <polygon class="fil0" points="131,247 111,247 111,197 131,197 "/>
    <polygon class="fil0" points="181,267 161,267 161,247 181,247 "/>
    <path class="fil0" d="M329 168l-40 0c-5,0 -10,-5 -10,-10l0 -128 20 0 0 118 30 0 0 20z"/>
    <path class="fil0" d="M476 50l-147 0 0 -20 157 0c6,0 10,4 10,10l0 49 -20 0 0 -39z"/>
    <path class="fil0" d="M467 237l-69 0c-6,0 -10,-4 -10,-10l0 -79 19 0 0 69 60 0 0 20z"/>
    <polygon class="fil0" points="378,267 358,267 358,227 378,227 "/>
    <polygon class="fil0" points="358,553 289,553 289,533 358,533 "/>
    <polygon class="fil0" points="358,592 269,592 269,572 358,572 "/>
    <path class="fil0" d="M220 572l20 0 0 20 -30 0c-5,0 -10,-4 -10,-10l0 -79 20 0 0 69z"/>
    <polygon class="fil0" points="555,434 536,434 536,415 555,415 "/>
    <polygon class="fil0" points="329,434 289,434 289,415 329,415 "/>
    <polygon class="fil0" points="259,405 240,405 240,375 259,375 "/>
    <polygon class="fil0" points="269,444 250,444 250,424 269,424 "/>
    <polygon class="fil0" points="329,474 299,474 299,454 329,454 "/>
    <polygon class="fil0" points="220,395 200,395 200,375 220,375 "/>
    <polygon class="fil0" points="181,355 151,355 151,336 181,336 "/>
    <polygon class="fil0" points="368,355 319,355 319,336 368,336 "/>
    <polygon class="fil0" points="378,316 358,316 358,286 378,286 "/>
   </g>
   <g>
    <ellipse class="fil1 str0" cx="469" cy="387" rx="250" ry="244"/>
    <path class="fil0" d="M317 302c-8,0 -14,-6 -14,-14 0,-8 6,-14 14,-14 8,0 14,6 14,14 0,8 -6,14 -14,14z"/>
    <path class="fil0" d="M281 337c2,-8 10,-12 17,-10 8,2 12,9 10,17 -3,14 -5,29 -5,44 0,45 18,88 50,121 6,5 6,15 0,20 -6,6 -15,6 -20,0 -38,-38 -59,-88 -59,-141 0,-18 2,-35 7,-51z"/>
    <path class="fil0" d="M41 821c17,17 44,17 61,0l158 -158c5,-6 5,-15 0,-21l-40 -40 0 0c-6,-6 -15,-6 -21,0l-158 158c-17,17 -17,44 0,61zm662 -433c0,-126 -103,-229 -229,-229 -126,0 -228,103 -228,229 0,126 101,228 228,228 126,0 229,-102 229,-228zm-433 224l33 -33c-7,-6 -14,-13 -20,-20l-33 33 20 20zm-91 -30c14,-14 33,-16 49,-9l37 -36c-32,-44 -48,-95 -48,-149 0,-142 115,-257 257,-257 142,0 257,115 257,257 0,142 -115,257 -257,257 -54,0 -105,-17 -149,-48l-37 37c8,16 5,36 -8,49l-158 158c-14,14 -32,21 -51,21l0 0c-18,0 -36,-7 -50,-21 -28,-28 -28,-73 0,-101l158 -158z"/>
   </g>
   <path class="fil2" d="M461 517l0 -51 -53 -64c-5,-6 -4,-15 2,-20 6,-5 15,-5 20,1l31 38 0 -188c-31,26 -85,81 -85,142 0,61 54,116 85,142zm115 -142c0,-61 -55,-116 -86,-142l0 136 32 -32c6,-6 15,-6 20,0 6,5 6,14 0,20l-52 53c0,31 0,71 0,107 31,-26 86,-81 86,-142zm-229 0c0,-99 111,-176 120,-183 5,-3 12,-3 17,0 8,6 120,84 120,183 0,89 -89,160 -114,179l0 29c0,8 -7,14 -14,14 -8,0 -15,-6 -15,-14l0 -29c-25,-19 -114,-90 -114,-179z"/>
   <g>
    <path class="fil2" d="M4732 178c35,0 70,7 102,22 16,7 32,16 46,25 14,10 27,21 40,34 12,12 23,25 33,39 9,15 18,30 25,46 7,17 13,34 17,51 3,18 5,36 5,55 0,18 -2,36 -5,53 -4,17 -9,34 -16,50 -7,16 -16,32 -25,46 -10,14 -21,27 -33,40 -12,12 -25,23 -39,33 -15,9 -30,18 -46,25 -17,7 -34,12 -52,16 -17,3 -36,5 -55,5 -18,0 -36,-2 -53,-5 -18,-3 -35,-8 -51,-15 -16,-7 -31,-15 -46,-24 -14,-9 -27,-20 -39,-32 -13,-12 -24,-25 -34,-39 -9,-14 -18,-30 -25,-46 -7,-16 -12,-34 -16,-52 -3,-18 -5,-36 -5,-55 0,-19 2,-37 5,-54 4,-18 9,-35 16,-51 7,-16 15,-31 24,-45 10,-15 21,-28 33,-40l0 0c12,-12 25,-23 39,-33 15,-9 30,-18 47,-25 16,-7 33,-13 51,-17 18,-4 37,-6 56,-7l1 0zm-3 95c-12,0 -24,1 -35,4 -11,2 -22,5 -32,10 -11,5 -21,10 -30,16 -10,7 -18,14 -26,22 -16,16 -29,35 -38,56 -5,11 -8,22 -10,33 -3,12 -4,24 -4,36 0,12 1,24 4,35 2,11 5,22 10,33 4,10 10,20 16,30 6,9 14,17 22,25l0 1c8,7 16,15 26,21 9,6 19,12 30,16 10,5 21,8 32,11 11,2 23,3 35,3 13,0 24,-1 36,-4 11,-2 22,-5 33,-10l0 0c11,-4 21,-10 30,-16 10,-6 18,-13 26,-21l0 -1c8,-8 16,-16 22,-25 6,-10 12,-20 16,-30 5,-11 8,-22 10,-33 3,-11 4,-23 4,-35 0,-12 -1,-24 -4,-36 -2,-11 -5,-22 -10,-33 -4,-11 -10,-21 -16,-30 -6,-9 -14,-18 -22,-26 -16,-16 -34,-29 -56,-38l0 0c-11,-4 -22,-8 -33,-10 -12,-2 -23,-4 -36,-4z"/>
    <path class="fil2" d="M4187 223c0,-6 1,-12 4,-18l0 0c2,-6 6,-11 10,-15l0 0c4,-5 10,-8 15,-11 6,-2 12,-3 18,-3 7,0 13,1 19,3 5,3 10,6 15,11l0 0c4,4 8,9 10,15 2,6 4,12 4,18l0 18c4,-4 9,-8 14,-11 14,-11 30,-20 46,-29 17,-8 35,-14 53,-19 19,-4 38,-6 58,-6 7,0 13,1 19,3 7,2 12,6 17,10 5,5 9,10 11,16 3,5 4,12 4,18 0,13 -5,25 -15,34 -5,4 -10,8 -17,10 -6,2 -12,3 -19,3 -12,0 -24,1 -34,4 -11,2 -22,5 -32,10 -10,4 -19,10 -28,16l0 0c-9,6 -17,13 -25,21 -8,8 -15,16 -21,25 -6,9 -12,19 -16,29 -5,10 -9,20 -11,31 -3,11 -4,21 -5,32l1 0 0 234c0,6 -2,12 -4,18 -2,6 -6,11 -10,15 -5,5 -10,8 -16,11 -5,2 -11,3 -18,3 -6,0 -12,-1 -18,-3 -5,-3 -10,-6 -15,-11 -4,-4 -8,-9 -10,-15l0 0c-3,-6 -4,-12 -4,-18l0 -449z"/>
    <path class="fil2" d="M4065 235c0,-7 1,-13 3,-18 3,-6 6,-11 11,-16 4,-4 9,-8 15,-10 6,-2 12,-3 18,-3 6,0 12,1 18,3 6,2 11,6 15,10l0 0c5,5 8,10 11,16 2,5 3,11 3,18l0 408c0,19 -2,36 -5,54 -4,17 -9,34 -16,50 -7,16 -16,31 -25,46 -10,14 -21,27 -33,39 -12,13 -25,24 -39,33 -15,10 -30,19 -46,26 -17,7 -34,12 -51,16 -18,3 -36,5 -55,5 -38,0 -73,-7 -105,-20 -16,-7 -31,-15 -46,-24 -14,-10 -27,-20 -39,-32l0 0 -2 -1 0 0c-4,-5 -7,-10 -10,-15 -2,-6 -3,-12 -3,-18 0,-6 1,-12 3,-18 3,-6 6,-11 11,-16l0 0c5,-4 10,-8 16,-10 5,-3 11,-4 18,-4 13,0 24,4 32,13 9,8 17,15 26,22 10,6 20,11 30,16 10,5 21,8 33,10 11,2 23,4 36,4 12,0 23,-2 35,-4 11,-2 23,-6 33,-10 11,-5 21,-10 30,-16 10,-7 19,-14 27,-22 7,-8 15,-16 21,-26 6,-9 12,-19 16,-30 5,-10 8,-21 11,-32 1,-8 2,-16 3,-25 -5,5 -11,9 -16,13 -15,11 -31,20 -48,28 -17,8 -35,14 -54,18 -19,4 -38,6 -58,6 -19,0 -37,-2 -54,-5 -18,-3 -35,-8 -51,-15 -16,-7 -31,-15 -45,-24 -15,-9 -28,-20 -40,-32 -13,-12 -24,-25 -33,-39 -10,-14 -19,-30 -26,-46 -7,-16 -12,-34 -16,-52 -3,-17 -5,-36 -5,-55 0,-19 2,-37 5,-54 4,-18 9,-35 16,-51 7,-16 15,-31 24,-45 10,-15 21,-28 33,-40l0 0c12,-12 25,-23 40,-33 14,-9 29,-18 46,-25 16,-7 34,-13 52,-17 17,-4 36,-6 55,-7l1 0c19,1 38,3 56,7 19,4 36,11 54,19 17,8 33,18 48,29 5,4 11,9 16,13l0 -12zm0 208c-1,-11 -2,-22 -5,-33 -3,-11 -6,-22 -11,-32 -5,-11 -11,-20 -17,-29 -6,-9 -13,-17 -21,-25 -8,-8 -17,-15 -26,-21 -10,-6 -20,-11 -30,-15 -10,-5 -21,-8 -32,-10 -11,-2 -23,-4 -34,-4 -13,0 -24,2 -36,4 -11,2 -22,5 -32,10 -11,5 -21,10 -30,16 -10,7 -18,14 -26,22 -8,8 -15,17 -22,26 -6,9 -11,19 -16,30 -4,11 -8,22 -10,33 -2,12 -4,24 -4,36 0,12 1,24 4,35 2,11 5,22 10,33 5,10 10,20 16,30 7,9 14,18 22,26 8,8 16,15 26,21 9,6 19,12 30,16 10,5 21,8 32,11 12,2 23,3 36,3 11,0 23,-1 34,-3 11,-3 22,-6 32,-10 10,-5 20,-10 30,-16 9,-6 18,-13 26,-20 8,-8 15,-16 21,-24 7,-9 12,-19 17,-29 4,-10 8,-20 11,-31 3,-11 4,-22 5,-34l0 0 0 -16 0 0z"/>
    <path class="fil2" d="M3523 643c-5,4 -10,9 -15,13 -15,12 -31,22 -48,32 -17,10 -35,18 -54,23 -19,5 -39,7 -59,7 -19,0 -37,-2 -54,-5 -17,-3 -34,-8 -50,-15 -17,-7 -32,-15 -46,-24 -14,-9 -28,-20 -40,-32 -12,-12 -23,-25 -33,-39 -10,-14 -18,-30 -25,-46 -7,-16 -13,-34 -16,-52 -4,-18 -6,-36 -6,-55 0,-19 2,-37 6,-55 3,-17 8,-34 15,-51 7,-16 15,-32 25,-46 9,-15 20,-28 32,-40 12,-13 26,-24 40,-34 14,-9 30,-18 46,-25 17,-7 34,-12 52,-16 18,-3 37,-5 56,-5 36,0 70,7 103,22 16,7 31,16 45,25 14,10 28,21 40,33l0 0c12,13 23,26 33,40 10,15 18,30 26,46 7,17 12,34 16,51 4,18 5,36 5,55l0 223c0,6 -1,12 -3,18 -2,6 -6,11 -10,15 -5,5 -10,8 -16,11l0 0c-5,2 -11,3 -18,3 -6,0 -12,-1 -18,-3l0 0c-5,-3 -11,-6 -15,-11l0 0c-5,-4 -8,-9 -10,-15l0 0c-3,-6 -4,-12 -4,-18l0 -30zm0 -193c0,-12 -1,-24 -3,-36 -3,-11 -6,-22 -10,-33l0 0c-5,-11 -10,-21 -17,-30 -6,-9 -13,-18 -21,-26 -8,-8 -17,-15 -26,-22 -10,-6 -20,-11 -30,-16 -11,-4 -22,-8 -34,-10 -11,-2 -23,-4 -35,-4 -12,0 -24,1 -35,4 -11,2 -22,5 -33,10 -11,5 -21,10 -30,16 -9,7 -18,14 -26,22 -8,8 -15,17 -21,26 -7,9 -12,19 -17,30 -4,11 -8,22 -10,33 -2,12 -3,24 -3,36 0,12 1,24 3,35 2,11 6,22 10,33 5,10 10,20 17,30 6,9 13,17 21,25l0 1c8,7 17,15 26,21 9,6 19,12 30,16 11,5 22,8 33,11 11,2 23,3 35,3 12,0 23,-1 34,-3 11,-3 22,-6 32,-10 11,-5 21,-10 30,-16 9,-6 18,-13 26,-21 8,-8 15,-16 21,-26 7,-9 12,-19 17,-29 5,-11 8,-22 11,-34 3,-12 5,-24 5,-36l0 0z"/>
    <path class="fil0" d="M2932 603c6,-7 13,-10 21,-11l0 0c8,0 15,3 22,9l1 1 0 0c7,6 10,13 11,21l0 0c0,8 -3,15 -9,22l0 1 -1 1c-12,10 -25,20 -39,29 -14,9 -29,17 -45,23 -16,7 -33,12 -50,16 -17,3 -35,5 -53,5 -18,0 -36,-2 -54,-5 -17,-4 -34,-9 -51,-16 -16,-7 -31,-16 -46,-25 -14,-10 -27,-21 -40,-33l0 0c-12,-13 -23,-26 -33,-40 -9,-15 -18,-30 -25,-46 -7,-16 -12,-33 -16,-51 -3,-18 -5,-36 -5,-54 0,-38 7,-73 21,-106 7,-16 16,-32 25,-46 10,-15 21,-28 33,-41 13,-12 26,-23 40,-33 15,-9 30,-18 46,-25 17,-7 34,-12 51,-16 18,-3 36,-5 54,-5 19,0 36,2 54,5 17,4 34,9 51,16 16,7 31,16 46,25 14,10 27,21 39,33 13,12 24,25 34,39 9,15 18,30 25,46 7,17 13,34 17,51l0 0c4,17 6,35 6,53l0 0 0 3 0 1 0 0 0 2c-1,8 -4,15 -10,20 -5,5 -12,8 -21,8l-447 0c1,8 3,16 5,24 3,12 8,25 14,36 5,12 12,23 20,33l0 0c7,10 16,20 25,28 10,9 20,16 31,23 11,7 22,13 34,18 13,6 25,9 38,12 13,2 26,4 39,4 14,0 28,-2 41,-4 12,-2 25,-6 37,-11 12,-5 23,-11 34,-18 10,-6 20,-14 30,-22l0 0zm-142 -362c-13,0 -26,1 -39,3 -13,3 -25,7 -38,12 -12,5 -24,11 -34,18 -11,7 -21,14 -30,23 -9,9 -18,18 -25,28 -8,10 -15,21 -21,33 -6,12 -11,24 -14,36 -2,8 -4,15 -5,23l413 0c-1,-8 -3,-15 -5,-23 -4,-12 -8,-24 -14,-36 -6,-12 -13,-23 -21,-33 -7,-10 -16,-19 -25,-28 -10,-9 -20,-16 -31,-23 -10,-7 -22,-13 -34,-18l0 0c-12,-5 -24,-9 -37,-12 -13,-2 -26,-3 -40,-3z"/>
    <path class="fil0" d="M2271 209c0,-3 0,-7 2,-10 1,-3 2,-6 5,-9 2,-4 6,-7 11,-9 4,-2 8,-3 13,-3 4,0 8,1 11,2 4,2 7,4 10,7 3,2 6,6 8,10l0 0c1,4 2,8 2,12l0 70c6,-8 12,-15 18,-22 16,-17 33,-31 51,-43 18,-12 38,-21 61,-27 21,-6 45,-9 71,-9 5,0 9,1 13,3 4,2 8,5 11,9 2,3 4,6 5,9 1,3 2,7 2,10 0,4 -1,7 -2,11 -1,3 -3,6 -5,9 -3,4 -7,7 -11,9 -4,2 -8,3 -13,3 -28,0 -54,5 -78,16 -12,5 -23,12 -33,19 -11,7 -20,15 -29,25 -9,9 -17,19 -25,30 -7,10 -13,22 -19,34 -5,12 -9,24 -12,37 -3,12 -5,25 -5,38l0 0 0 250c0,9 -3,17 -11,23 -3,2 -6,4 -9,5 -4,2 -7,2 -11,2 -10,0 -17,-3 -23,-8 -6,-6 -8,-13 -8,-23l0 -480z"/>
    <path class="fil0" d="M2020 241c-21,0 -32,-11 -32,-32 0,-20 11,-31 32,-31l79 0 0 -130c0,-20 10,-31 31,-31 21,0 31,11 31,31l0 130 79 0c9,0 17,3 23,9 5,5 8,13 8,22 0,21 -10,32 -31,32l-79 0 0 448c0,21 -10,31 -31,31 -10,0 -17,-3 -23,-8 -6,-6 -8,-13 -8,-23l0 -448 -79 0z"/>
    <path class="fil0" d="M1649 316c0,-12 1,-24 4,-35 3,-11 7,-22 12,-31 6,-9 12,-17 19,-24 7,-7 15,-13 24,-19 8,-5 17,-9 27,-13 9,-4 19,-7 30,-9 10,-2 20,-4 31,-5 10,-1 21,-2 32,-2 8,0 17,1 26,1 9,1 18,2 27,4l0 0c9,2 17,4 26,6 8,3 16,6 24,9 8,4 16,8 23,13 7,4 13,9 19,15 6,6 11,13 16,20 4,7 7,15 9,23 1,5 2,9 1,14 -1,4 -4,8 -7,12 -6,7 -14,10 -26,10 -6,0 -12,-2 -17,-7 -4,-3 -7,-7 -10,-13l0 0c-4,-7 -10,-14 -16,-19 -7,-6 -16,-11 -26,-16 -10,-4 -21,-7 -33,-9 -11,-3 -23,-4 -36,-4 -14,0 -28,2 -42,4 -7,1 -13,3 -20,5 -6,2 -12,4 -17,8 -6,3 -11,6 -15,10 -4,4 -8,8 -12,14 -3,4 -5,10 -7,16 -2,6 -2,14 -2,22 0,7 0,12 2,17 2,5 4,9 7,13 3,4 7,8 11,12 5,4 9,7 15,10 5,3 11,6 17,8l0 0c6,3 13,5 20,6 6,2 13,4 21,5 7,2 13,3 20,4l0 0c13,3 26,6 39,9 13,3 25,7 37,11 11,5 23,9 34,15 10,5 20,11 29,17 10,7 18,14 26,22 7,8 14,16 19,26 6,9 10,19 13,30 3,11 4,23 4,35 0,12 -1,24 -4,35 -3,12 -7,22 -12,33 -6,10 -12,19 -19,28 -8,8 -16,16 -25,24 -9,7 -19,13 -29,19 -11,6 -22,10 -34,14 -12,4 -25,6 -37,8 -13,2 -26,3 -39,3 -23,0 -44,-2 -65,-7 -20,-5 -39,-13 -56,-23 -18,-10 -33,-22 -45,-37 -12,-15 -21,-31 -26,-50l0 -1c-2,-10 -1,-19 2,-28 3,-5 6,-9 11,-12 5,-2 10,-4 15,-4 6,0 11,1 16,3l0 0c5,2 8,5 11,9 3,3 5,7 7,12l0 0c2,6 5,11 8,16 3,5 7,10 12,14 4,5 9,10 14,14 6,4 11,7 17,11 6,3 12,6 19,9 6,2 13,5 20,6 7,2 13,4 20,4l0 0c6,1 13,2 20,2 10,0 19,-1 28,-2l0 0c10,-1 18,-3 27,-6l0 0c8,-2 16,-5 24,-9 7,-3 14,-7 20,-11 6,-5 11,-9 16,-15 5,-5 9,-11 12,-17 4,-6 6,-13 8,-20 2,-7 3,-14 3,-22 0,-6 -1,-11 -3,-16 -1,-5 -4,-11 -7,-16 -4,-5 -8,-11 -13,-16 -5,-5 -10,-10 -16,-14 -7,-4 -14,-9 -21,-13 -8,-4 -16,-7 -24,-11 -9,-3 -18,-6 -27,-8 -9,-3 -19,-5 -29,-7l0 0c-12,-1 -23,-4 -34,-6 -11,-3 -22,-6 -33,-10 -11,-3 -21,-7 -30,-11 -9,-5 -18,-10 -26,-15l0 0c-8,-6 -16,-12 -22,-19 -7,-6 -12,-14 -17,-22 -10,-16 -15,-35 -15,-56z"/>
    <path class="fil0" d="M1088 450c0,-19 2,-37 6,-55 3,-17 9,-34 16,-51 7,-16 15,-32 25,-46 10,-15 21,-28 33,-41 12,-12 25,-23 40,-33 14,-9 29,-18 46,-25 16,-7 33,-12 51,-16 18,-3 36,-5 54,-5 18,0 36,2 54,5 17,4 34,9 51,16 16,7 32,16 46,25 14,10 28,21 40,33 12,12 23,25 33,39 10,15 18,30 26,46 7,17 12,34 16,51 4,18 6,36 6,55l0 241c0,21 -11,31 -32,31 -9,0 -17,-3 -22,-8 -6,-6 -9,-13 -9,-23l0 -71c-5,6 -10,12 -15,17 -17,17 -35,32 -56,45 -20,14 -42,24 -65,30 -23,7 -48,10 -73,10 -18,0 -36,-2 -54,-5 -18,-4 -35,-9 -51,-16 -17,-7 -32,-16 -46,-25 -15,-10 -28,-21 -40,-33l0 0c-12,-13 -23,-26 -33,-40 -10,-14 -18,-30 -25,-46 -7,-16 -13,-33 -16,-51 -4,-18 -6,-36 -6,-54zm63 0c0,28 5,55 16,80 6,13 12,25 20,36 7,11 15,21 25,31l0 0c9,9 20,18 31,25 11,7 23,14 35,19 13,6 26,10 39,13 14,2 28,4 42,4 14,0 28,-2 42,-4 13,-3 26,-7 39,-13 13,-5 24,-12 35,-19 11,-7 22,-16 31,-25l0 0c10,-10 18,-20 26,-31 7,-11 14,-23 19,-36 6,-13 10,-26 13,-39 3,-13 4,-27 4,-41 0,-15 -1,-28 -4,-42 -3,-13 -7,-26 -13,-39 -5,-13 -12,-25 -19,-36 -8,-11 -16,-21 -26,-30 -9,-10 -20,-19 -31,-26 -11,-7 -23,-14 -35,-20 -13,-5 -26,-9 -40,-12 -13,-3 -27,-4 -41,-4 -14,0 -28,1 -41,4 -14,3 -27,7 -40,12 -12,6 -24,13 -35,20 -11,8 -22,16 -31,26 -10,9 -18,19 -25,30 -8,11 -14,23 -20,36 -5,13 -9,26 -12,39 -3,13 -4,27 -4,42z"/>
    <path class="fil0" d="M837 209c0,-3 1,-7 2,-10 1,-3 3,-6 5,-9 3,-4 7,-7 11,-9 4,-2 8,-3 13,-3 4,0 8,1 12,2l0 0c3,2 6,4 9,7l0 0c4,2 6,6 8,10l0 0c2,4 3,8 3,12l0 70c5,-8 11,-15 18,-22 16,-17 33,-31 50,-43l0 0c19,-12 39,-21 61,-27 22,-6 46,-9 71,-9 5,0 9,1 13,3 5,2 9,5 11,9l0 0c3,3 4,6 5,9l0 0c2,3 2,7 2,10 0,4 0,7 -2,11l0 0c-1,3 -2,6 -5,9l0 0c-2,4 -6,7 -11,9 -4,2 -8,3 -13,3 -14,0 -27,1 -40,4 -13,2 -25,6 -37,12 -12,5 -24,12 -34,19 -10,7 -20,15 -29,25 -9,9 -17,19 -24,30 -7,10 -14,22 -19,34 -6,12 -10,24 -13,37 -3,12 -4,25 -5,38l1 0 0 250c0,9 -4,17 -11,23 -3,2 -6,4 -10,5 -3,2 -7,2 -11,2 -9,0 -17,-3 -23,-8 -5,-6 -8,-13 -8,-23l0 -480z"/>
   </g>
  </g>
 </g>
</svg>
